<?xml version="1.0" encoding="UTF-8" standalone="no"?>
<!-- Created with Inkscape (http://www.inkscape.org/) -->

<svg
   xmlns:dc="http://purl.org/dc/elements/1.1/"
   xmlns:cc="http://creativecommons.org/ns#"
   xmlns:rdf="http://www.w3.org/1999/02/22-rdf-syntax-ns#"
   xmlns:svg="http://www.w3.org/2000/svg"
   xmlns="http://www.w3.org/2000/svg"
   xmlns:sodipodi="http://sodipodi.sourceforge.net/DTD/sodipodi-0.dtd"
   xmlns:inkscape="http://www.inkscape.org/namespaces/inkscape"
   width="300"
   height="500"
   viewBox="0 0 79.374998 132.29167"
   version="1.1"
   id="svg8"
   inkscape:version="0.92.4 (5da689c313, 2019-01-14)"
   sodipodi:docname="slime_idle1.svg">
  <defs
     id="defs2" />
  <sodipodi:namedview
     id="base"
     pagecolor="#ffffff"
     bordercolor="#666666"
     borderopacity="1.0"
     inkscape:pageopacity="0.0"
     inkscape:pageshadow="2"
     inkscape:zoom="1.6628058"
     inkscape:cx="54.254602"
     inkscape:cy="127.26547"
     inkscape:document-units="mm"
     inkscape:current-layer="layer3"
     showgrid="false"
     units="px"
     inkscape:window-width="1920"
     inkscape:window-height="1009"
     inkscape:window-x="-8"
     inkscape:window-y="-8"
     inkscape:window-maximized="1" />
  <metadata
     id="metadata5">
    <rdf:RDF>
      <cc:Work
         rdf:about="">
        <dc:format>image/svg+xml</dc:format>
        <dc:type
           rdf:resource="http://purl.org/dc/dcmitype/StillImage" />
        <dc:title></dc:title>
      </cc:Work>
    </rdf:RDF>
  </metadata>
  <g
     inkscape:label="Layer 1"
     inkscape:groupmode="layer"
     id="layer1"
     transform="translate(0,-164.70832)"
     style="opacity:1"
     sodipodi:insensitive="true">
    <path
       style="fill:#00ccff;stroke:none;stroke-width:0.26458332px;stroke-linecap:butt;stroke-linejoin:miter;stroke-opacity:1"
       d="m 14.851827,297.1125 c 11.330752,0.21625 29.441717,0.12473 41.967663,0 4.004287,-0.0399 7.972104,-4.52457 8.494794,-8.4948 1.215718,-9.23431 -6.354889,-25.72973 -14.421042,-30.38672 -6.571627,-3.79413 -18.341961,-4.36658 -25.3526,-1.46268 -9.4224,3.90288 -17.7584998,19.12151 -18.5969054,29.28572 -0.3725379,4.51638 3.3772014,10.97201 7.9080904,11.05848 z"
       id="path10"
       inkscape:connector-curvature="0"
       sodipodi:nodetypes="sssssss" />
  </g>
  <g
     inkscape:groupmode="layer"
     id="layer3"
     inkscape:label="Layer 2"
     sodipodi:insensitive="true">
    <path
       style="fill:#00aad4;fill-opacity:1;stroke:none;stroke-width:0.26458332px;stroke-linecap:butt;stroke-linejoin:miter;stroke-opacity:1"
       d="m 13.922877,130.30269 c -4.7905538,2.85183 43.520976,1.81601 44.155413,0.87515 2.838554,-4.20953 -39.550607,-3.6164 -44.155413,-0.87515 z"
       id="path31"
       inkscape:connector-curvature="0"
       sodipodi:nodetypes="sss" />
    <path
       style="fill:#80e5ff;stroke:none;stroke-width:0.26458332px;stroke-linecap:butt;stroke-linejoin:miter;stroke-opacity:1"
       d="M 31.346364,92.193779 C 15.569985,92.495342 5.8102994,121.792 12.172573,116.69804 c 4.90239,-3.9251 5.742614,-8.54843 8.637851,-11.98778 6.733485,-7.998936 15.130451,-12.604305 10.53594,-12.516481 z"
       id="path33"
       inkscape:connector-curvature="0"
       sodipodi:nodetypes="ssss" />
  </g>
  <g
     inkscape:groupmode="layer"
     id="layer2"
     inkscape:label="eyes"
     sodipodi:insensitive="true">
    <path
       style="fill:#000000;stroke:none;stroke-width:0.35234302px;stroke-linecap:butt;stroke-linejoin:miter;stroke-opacity:1"
       d="m 35.03105,90.144325 v 13.164125 c 0,1.85643 -3.192508,1.98055 -3.192508,0 V 90.144325 c 0,-2.179017 3.192508,-2.070472 3.192508,0 z"
       id="path13"
       inkscape:connector-curvature="0"
       sodipodi:nodetypes="sssss" />
    <path
       style="fill:#000000;stroke:none;stroke-width:0.35014099px;stroke-linecap:butt;stroke-linejoin:miter;stroke-opacity:1"
       d="M 24.370104,90.462562 V 103.6267 c 0,1.85643 -3.152728,1.98055 -3.152728,0 V 90.462562 c 0,-2.179017 3.152728,-2.070472 3.152728,0 z"
       id="path13-3"
       inkscape:connector-curvature="0"
       sodipodi:nodetypes="sssss" />
  </g>
</svg>
